<svg width="42" height="42" viewBox="0 0 42 42" fill="none" xmlns="http://www.w3.org/2000/svg">
<rect x="42" width="42" height="42" rx="21" transform="rotate(90 42 0)" fill="white"/>
<path d="M16.7071 23.2929C16.3166 22.9024 15.6834 22.9024 15.2929 23.2929C14.9024 23.6834 14.9024 24.3166 15.2929 24.7071L20.2929 29.7071C20.6834 30.0976 21.3166 30.0976 21.7071 29.7071L26.7071 24.7071C27.0976 24.3166 27.0976 23.6834 26.7071 23.2929C26.3166 22.9024 25.6834 22.9024 25.2929 23.2929L22 26.5858L22 12.9444C22 12.4228 21.5523 12 21 12C20.4477 12 20 12.4228 20 12.9444L20 26.5858L16.7071 23.2929Z" fill="#1B1B1B"/>
</svg>
