<svg width="13" height="16" viewBox="0 0 13 16" fill="none" xmlns="http://www.w3.org/2000/svg">
<g clip-path="url(#clip0_69_250)">
<path d="M3.36956 14.6V9.93644C3.11181 10.119 2.85213 10.2667 2.59088 10.3787C1.59681 10.8047 0.499563 10.0694 0.5 9C0.50025 8.41825 0.840531 7.99366 1.40913 7.75C2.29306 7.37119 3.41941 5.29225 3.82547 4.38956C4.07409 3.83153 4.62169 3.50041 5.19562 3.50006L5.19566 3.5H10.5558C10.925 3.5 11.2401 3.76862 11.2966 4.13341C11.5231 5.59706 12.4992 6.06341 12.4939 8C12.4937 8.08512 12.5 8.41419 12.5 8.5C12.5 10.0829 11.8087 11.0492 10.273 10.7688C9.9825 11.3499 9.03909 11.7293 8.32569 11.2828C7.66391 12.053 6.64144 11.9903 6.10869 11.4797V14.6C6.10869 15.3547 5.47741 16 4.73912 16C4.01153 16 3.36956 15.3328 3.36956 14.6ZM4 2.25V0.75C4 0.335781 4.33578 0 4.75 0H10.75C11.1642 0 11.5 0.335781 11.5 0.75V2.25C11.5 2.66422 11.1642 3 10.75 3H4.75C4.33578 3 4 2.66422 4 2.25ZM10.625 1.5C10.625 1.15481 10.3452 0.875 10 0.875C9.65481 0.875 9.375 1.15481 9.375 1.5C9.375 1.84519 9.65481 2.125 10 2.125C10.3452 2.125 10.625 1.84519 10.625 1.5Z" fill="#C4A80A"/>
</g>
<defs>
<clipPath id="clip0_69_250">
<rect width="12" height="16" fill="white" transform="translate(0.5)"/>
</clipPath>
</defs>
</svg>
